<svg width="728" height="190" viewBox="0 0 728 190" fill="none" xmlns="http://www.w3.org/2000/svg">
<path d="M13.5484 11.2H70.9484V134H13.5484V112H48.7484V32.8H13.5484V11.2ZM13.7484 61.2H57.5484V82.6H13.7484V61.2ZM99.1484 8.2H160.548V30.4H99.1484V8.2ZM99.1484 56H160.548V77.6H99.1484V56ZM98.7484 103.4H160.348V124.8H98.7484V103.4ZM0.748438 11.2H22.9484V151.4H0.748438V11.2ZM151.548 8.2H175.348V160.6C175.348 173 172.748 179.6 164.948 183.4C156.948 187.2 145.548 187.8 128.548 187.8C127.548 181.2 123.748 170.8 120.348 164.6C131.148 165.2 143.348 165 146.748 165C150.348 165 151.548 163.8 151.548 160.2V8.2ZM84.7484 8.2H108.348V80.8C108.348 115.4 102.948 162.4 65.9484 189.6C62.3484 184.8 53.1484 176.6 47.9484 173.4C81.7484 148.8 84.7484 111.2 84.7484 80.6V8.2ZM300.148 77.6H361.348V96.6H300.148V77.6ZM288.348 8.59999H361.948V29.6H309.948V188H288.348V8.59999ZM349.748 8.59999H371.948V46.4C371.948 56.6 369.948 62.6 362.148 65.8C354.348 69 343.548 69.2 328.748 69.2C327.948 63 324.948 54.4 322.148 48.6C331.948 49 342.948 49 345.748 49C348.948 48.8 349.748 48.2 349.748 46V8.59999ZM325.348 91.6C335.348 124.8 355.548 155 383.748 169.2C378.548 173.6 371.548 182.2 367.948 188.2C338.348 170.4 318.748 136.2 307.348 96.2L325.348 91.6ZM354.348 77.6H358.548L362.348 76.6L376.748 81.8C369.548 127.4 351.148 166.2 321.148 188.4C317.548 183 310.548 176 305.348 172C332.748 153 349.348 118.4 354.348 82.2V77.6ZM200.348 18H277.148V37.8H200.348V18ZM198.948 130.8H279.348V151H198.948V130.8ZM193.148 51.6H284.548V71.8H193.148V51.6ZM197.148 95H281.548V115.2H197.148V95ZM228.748 0.799997H250.948V59.2H228.748V0.799997ZM228.748 103.4H250.948V187.4H228.748V103.4ZM255.948 68.8L275.748 73.6C271.748 82.8 268.348 91.8 265.148 98L248.148 93.2C250.948 86.4 254.348 76 255.948 68.8ZM205.748 73.6L223.548 69.2C227.348 76.6 230.948 87 231.748 93.2L212.948 98.4C212.148 92 209.148 81.6 205.748 73.6ZM541.25 10.4297V140.117H516.25V10.4297H541.25ZM391.836 96.1719C421.621 86.2109 434.609 61.5039 434.609 37.3828V20.1953H460.586V37.3828C460.391 60.918 472.988 83.8672 502.188 93.2422L489.492 112.773C469.375 106.133 455.605 92.8516 447.695 75.957C439.688 94.1211 425.527 108.77 404.727 115.898L391.836 96.1719ZM422.109 184.844V127.617H447.305V164.922H545.938V184.844H422.109ZM727.773 98.125V117.852H660.781V148.516H636.172V117.852H565.078V98.125H727.773ZM584.219 184.844V133.086H609.023V164.922H709.805V184.844H584.219ZM585.391 83.4766V18.0469H706.875V83.4766H585.391ZM609.805 64.1406H682.461V37.3828H609.805V64.1406Z" fill="white"/>
</svg>
